<svg xmlns="http://www.w3.org/2000/svg" xmlns:xlink="http://www.w3.org/1999/xlink" viewBox="0 0 350 43.37"><defs><style>.cls-1{fill:#231815;}.cls-2{fill:url(#linear-gradient);}.cls-3{fill:url(#linear-gradient-2);}.cls-4{fill:url(#radial-gradient);}.cls-5{fill:#b0d9e2;}.cls-6{fill:#7cc0cf;}.cls-7{fill:url(#radial-gradient-2);}.cls-8{fill:url(#radial-gradient-3);}.cls-9{fill:url(#radial-gradient-4);}.cls-10{fill:url(#linear-gradient-3);}.cls-11{fill:url(#linear-gradient-4);}.cls-12{fill:url(#linear-gradient-5);}.cls-13{fill:#2aa0bc;}.cls-14{fill:url(#linear-gradient-6);}.cls-15{fill:url(#linear-gradient-7);}.cls-16{fill:url(#linear-gradient-8);}.cls-17{fill:url(#linear-gradient-9);}.cls-18{fill:url(#linear-gradient-10);}.cls-19{fill:url(#linear-gradient-11);}.cls-20{fill:url(#linear-gradient-12);}.cls-21{fill:url(#linear-gradient-13);}</style><linearGradient id="linear-gradient" x1="28.54" y1="19.23" x2="41.15" y2="19.23" gradientUnits="userSpaceOnUse"><stop offset="0" stop-color="#fff"/><stop offset="0.13" stop-color="#cbe3eb"/><stop offset="0.29" stop-color="#94c7d7"/><stop offset="0.43" stop-color="#6cb2c8"/><stop offset="0.53" stop-color="#54a5bf"/><stop offset="0.6" stop-color="#4ba0bc"/><stop offset="0.69" stop-color="#329cb9"/><stop offset="0.8" stop-color="#1e98b7"/><stop offset="0.9" stop-color="#1196b5"/><stop offset="1" stop-color="#0d95b5"/></linearGradient><linearGradient id="linear-gradient-2" x1="43.19" y1="24.21" x2="30.16" y2="24.21" gradientUnits="userSpaceOnUse"><stop offset="0.21" stop-color="#7cc0cf"/><stop offset="0.37" stop-color="#7fc1d0"/><stop offset="0.47" stop-color="#87c5d3"/><stop offset="0.55" stop-color="#95ccd8"/><stop offset="0.62" stop-color="#aad6e0"/><stop offset="0.68" stop-color="#c4e3e9"/><stop offset="0.74" stop-color="#e4f2f5"/><stop offset="0.79" stop-color="#fff"/><stop offset="0.79" stop-color="#fbfdfe"/><stop offset="0.79" stop-color="#eef8fa"/><stop offset="0.79" stop-color="#daeef3"/><stop offset="0.79" stop-color="#bde2ea"/><stop offset="0.79" stop-color="#97d1df"/><stop offset="0.79" stop-color="#69bdd0"/><stop offset="0.79" stop-color="#34a5c0"/><stop offset="0.79" stop-color="#1296b5"/></linearGradient><radialGradient id="radial-gradient" cx="15.36" cy="28.65" r="7.15" gradientUnits="userSpaceOnUse"><stop offset="0" stop-color="#fff"/><stop offset="0.07" stop-color="#d8eef3"/><stop offset="0.22" stop-color="#92cfdd"/><stop offset="0.35" stop-color="#5bb6cc"/><stop offset="0.46" stop-color="#33a5bf"/><stop offset="0.55" stop-color="#1b9ab8"/><stop offset="0.6" stop-color="#1296b5"/><stop offset="0.64" stop-color="#1196b5"/><stop offset="1" stop-color="#0d95b5"/></radialGradient><radialGradient id="radial-gradient-2" cx="16.44" cy="15.32" r="9.63" xlink:href="#radial-gradient"/><radialGradient id="radial-gradient-3" cx="30.09" cy="28.65" r="7.15" xlink:href="#radial-gradient"/><radialGradient id="radial-gradient-4" cx="30.09" cy="14.79" r="7.15" xlink:href="#radial-gradient"/><linearGradient id="linear-gradient-3" y1="21.69" x2="45.3" y2="21.69" gradientUnits="userSpaceOnUse"><stop offset="0" stop-color="#7cc0cf"/><stop offset="1" stop-color="#0d95b5"/></linearGradient><linearGradient id="linear-gradient-4" x1="16.99" y1="17.34" x2="22.94" y2="17.34" gradientUnits="userSpaceOnUse"><stop offset="0" stop-color="#fff"/><stop offset="0.05" stop-color="#f0f8fa"/><stop offset="0.28" stop-color="#aad9e4"/><stop offset="0.49" stop-color="#73c1d3"/><stop offset="0.67" stop-color="#4bafc6"/><stop offset="0.81" stop-color="#33a4bf"/><stop offset="0.9" stop-color="#2aa0bc"/></linearGradient><linearGradient id="linear-gradient-5" x1="24.23" y1="24.21" x2="15.15" y2="24.21" xlink:href="#linear-gradient"/><linearGradient id="linear-gradient-6" x1="22.72" y1="17.34" x2="26.93" y2="17.34" gradientUnits="userSpaceOnUse"><stop offset="0.21" stop-color="#4db0c8"/><stop offset="0.3" stop-color="#51b2c9"/><stop offset="0.41" stop-color="#5eb7cd"/><stop offset="0.51" stop-color="#72c1d3"/><stop offset="0.61" stop-color="#8fcddc"/><stop offset="0.72" stop-color="#b4dee8"/><stop offset="0.79" stop-color="#d0eaf0"/><stop offset="0.79" stop-color="#cce8ef"/><stop offset="0.79" stop-color="#bfe3eb"/><stop offset="0.79" stop-color="#abd9e4"/><stop offset="0.79" stop-color="#8ecddb"/><stop offset="0.79" stop-color="#68bcd0"/><stop offset="0.79" stop-color="#3ba8c2"/><stop offset="0.79" stop-color="#1296b5"/></linearGradient><linearGradient id="linear-gradient-7" x1="22.72" y1="19.23" x2="31.8" y2="19.23" gradientUnits="userSpaceOnUse"><stop offset="0" stop-color="#d8ecf0"/><stop offset="0.02" stop-color="#d3e9ee"/><stop offset="0.19" stop-color="#add8e1"/><stop offset="0.35" stop-color="#92cbd7"/><stop offset="0.49" stop-color="#82c3d1"/><stop offset="0.6" stop-color="#7cc0cf"/><stop offset="0.74" stop-color="#62b7ca"/><stop offset="0.9" stop-color="#4aaec6"/><stop offset="1" stop-color="#41abc4"/></linearGradient><linearGradient id="linear-gradient-8" x1="15.5" y1="19.23" x2="2.45" y2="19.23" gradientUnits="userSpaceOnUse"><stop offset="0" stop-color="#fff"/><stop offset="0.02" stop-color="#f1f9fb"/><stop offset="0.11" stop-color="#bae0ea"/><stop offset="0.18" stop-color="#92cfdd"/><stop offset="0.24" stop-color="#7ac4d6"/><stop offset="0.28" stop-color="#71c0d3"/><stop offset="0.28" stop-color="#65bacf"/><stop offset="0.28" stop-color="#57b5cb"/><stop offset="0.28" stop-color="#4fb1c9"/><stop offset="0.28" stop-color="#4db0c8"/><stop offset="0.31" stop-color="#49aec7"/><stop offset="0.35" stop-color="#3ca9c3"/><stop offset="0.39" stop-color="#28a0bd"/><stop offset="0.43" stop-color="#0d95b5"/></linearGradient><linearGradient id="linear-gradient-9" x1="22.72" y1="31.52" x2="18.84" y2="31.52" gradientUnits="userSpaceOnUse"><stop offset="0.3" stop-color="#1296b5"/><stop offset="0.35" stop-color="#1899b7"/><stop offset="0.41" stop-color="#28a0bc"/><stop offset="0.48" stop-color="#43acc4"/><stop offset="0.56" stop-color="#69bdd0"/><stop offset="0.64" stop-color="#9ad2df"/><stop offset="0.73" stop-color="#d4ecf2"/><stop offset="0.79" stop-color="#fff"/><stop offset="0.79" stop-color="#fbfdfe"/><stop offset="0.79" stop-color="#eef8fa"/><stop offset="0.79" stop-color="#daeef3"/><stop offset="0.79" stop-color="#bde2ea"/><stop offset="0.79" stop-color="#97d1df"/><stop offset="0.79" stop-color="#69bdd0"/><stop offset="0.79" stop-color="#34a5c0"/><stop offset="0.79" stop-color="#1296b5"/></linearGradient><linearGradient id="linear-gradient-10" x1="26.31" y1="31.52" x2="22.61" y2="31.52" gradientUnits="userSpaceOnUse"><stop offset="0" stop-color="#fff"/><stop offset="1" stop-color="#7cc0cf"/></linearGradient><linearGradient id="linear-gradient-11" x1="12.57" y1="19.23" x2="22.4" y2="19.23" gradientUnits="userSpaceOnUse"><stop offset="0" stop-color="#fff"/><stop offset="0.06" stop-color="#f2f9fb"/><stop offset="0.17" stop-color="#cfeaf0"/><stop offset="0.31" stop-color="#97d1df"/><stop offset="0.49" stop-color="#4bafc7"/><stop offset="0.51" stop-color="#41abc4"/><stop offset="0.56" stop-color="#37a7c1"/><stop offset="0.71" stop-color="#239dba"/><stop offset="0.86" stop-color="#1698b6"/><stop offset="1" stop-color="#1296b5"/></linearGradient><linearGradient id="linear-gradient-12" x1="27.71" y1="26.1" x2="18.84" y2="26.1" gradientUnits="userSpaceOnUse"><stop offset="0" stop-color="#fff"/><stop offset="0.01" stop-color="#fbfdfe"/><stop offset="0.14" stop-color="#c5e3ea"/><stop offset="0.25" stop-color="#9dd0db"/><stop offset="0.34" stop-color="#85c4d2"/><stop offset="0.4" stop-color="#7cc0cf"/><stop offset="1" stop-color="#7cc0cf"/></linearGradient><linearGradient id="linear-gradient-13" x1="17.74" y1="26.1" x2="22.72" y2="26.1" gradientUnits="userSpaceOnUse"><stop offset="0.3" stop-color="#1296b5"/><stop offset="0.39" stop-color="#1597b6"/><stop offset="0.46" stop-color="#1f9cb9"/><stop offset="0.52" stop-color="#30a3be"/><stop offset="0.58" stop-color="#48aec6"/><stop offset="0.64" stop-color="#67bcd0"/><stop offset="0.7" stop-color="#8dccdb"/><stop offset="0.75" stop-color="#b8e0e9"/><stop offset="0.79" stop-color="#dbeff4"/><stop offset="0.79" stop-color="#d7edf3"/><stop offset="0.79" stop-color="#cae8ef"/><stop offset="0.79" stop-color="#b6dee8"/><stop offset="0.79" stop-color="#99d2df"/><stop offset="0.79" stop-color="#73c1d3"/><stop offset="0.79" stop-color="#46adc5"/><stop offset="0.79" stop-color="#36a6c0"/></linearGradient></defs><g id="レイヤー_2" data-name="レイヤー 2"><g id="レイヤー_1-2" data-name="レイヤー 1"><path class="cls-1" d="M61.39,19.13v.25c.31-1,.57-2.18.82-3.44l2.05.65a.34.34,0,0,1,.27.32c0,.15-.29.31-.82.44-.23.49-.44.93-.63,1.35h1.5V14.82l2.4.29c.38,0,.59.15.59.32s-.29.38-.82.51V18.7h1.48l1.1-1.35,1.79,1.35v.51H66.75v3.7h2l1.12-1.32,1.78,1.32v.54H67.11a9.8,9.8,0,0,0,2,2.75A8.21,8.21,0,0,0,72,28.12v.51a2.29,2.29,0,0,0-1.48,1.64,10.15,10.15,0,0,1-2.43-2.85,15.85,15.85,0,0,1-1.35-3.12v7.45l-2.17.3V25.86a21,21,0,0,1-5.33,4.64L59,30.19a21.75,21.75,0,0,0,5-6.74H60.82a2.44,2.44,0,0,1,.29,1c0,.55-.31.82-.89.82a.85.85,0,0,1-.9-.74,5.51,5.51,0,0,0-.81-1.9v9l-2,.31V24.87a15.25,15.25,0,0,1-2.17,2.95L54,27.38a36.13,36.13,0,0,0,2.47-7.73h-2l-.23-.52h2.24V14.9l2.26.28c.36,0,.55.15.55.33s-.28.32-.81.43v3.19H59L59.91,18Zm3.19.08H62.82a15.63,15.63,0,0,1-2.09,3.27l-.29-.38a17.94,17.94,0,0,0,.88-2.45H58.51v2.18a5.21,5.21,0,0,1,1.93,1.08h4.14Z"/><path class="cls-1" d="M90.86,18.7v.51H85.2A25.45,25.45,0,0,0,85.9,25a7.36,7.36,0,0,0,2.38,4.11L90,26.49l.46.21a8.23,8.23,0,0,0-.74,2.24,2.6,2.6,0,0,0,1,1.84,1.67,1.67,0,0,1-1.48,1,4.08,4.08,0,0,1-2.75-1.41A10.74,10.74,0,0,1,84,26a12.31,12.31,0,0,1-.55-2.52h-3.8v5.09l4.16-.5.08.37C82.44,29,79.8,29.93,76,31.24c-.1.43-.21.66-.37.66s-.45-.17-.6-.47c0,0-.34-.74-1-2.21l3.48-.42V23.45H74.24L74,22.91h6.44l1.12-1.4,1.78,1.35a33.59,33.59,0,0,1-.28-3.65H73.57l-.23-.51h9.73C83,17.52,83,16.23,83,14.82l2.09.23a1.64,1.64,0,0,1,.78.27,7,7,0,0,1,2.24.74,1.43,1.43,0,0,1,.69,1c0,.65-.36,1-1.05,1a.85.85,0,0,1-.91-.53,3.76,3.76,0,0,0-1.14-1.69,5.1,5.1,0,0,1-.55.23c0,1,0,1.88,0,2.68h2.87l1.1-1.28Z"/><path class="cls-1" d="M102.34,15.26c.36.09.55.23.55.38s-.31.4-.9.51a11.92,11.92,0,0,0,3,2.53,17,17,0,0,0,4.92,2v.52a2.24,2.24,0,0,0-1.48,1.63,15.68,15.68,0,0,1-4.45-3,15.69,15.69,0,0,1-2.41-3.22A21.33,21.33,0,0,1,98,20.08,22.23,22.23,0,0,1,92.65,23l-.31-.36A18.25,18.25,0,0,0,97,18.89a19.53,19.53,0,0,0,2.92-4.28C101.52,15.05,102.34,15.26,102.34,15.26ZM109.19,25v.52h-8.64l-2.22,3.74,6.49-.15A8.62,8.62,0,0,0,102.58,27l.31-.44a13.11,13.11,0,0,1,4.21,2.11,2.71,2.71,0,0,1,1.05,1.83c0,.93-.4,1.4-1.18,1.4s-1.14-.47-1.41-1.4a6.92,6.92,0,0,0-.39-.88c-2.06.38-5.27.89-9.64,1.62-.07.43-.21.66-.36.66a.64.64,0,0,1-.57-.45l-1-2.08,3.44-.07,1-3.78H93L92.8,25h13.35l1.18-1.42Zm-3.85-3.57V22H96.88l-.23-.52h6l1-1.17Z"/><path class="cls-1" d="M116.39,15.14c.38.06.59.19.59.42s-.28.36-.81.53v2.38h1l.52-1,1.88,1.22c.23.11.36.26.36.41s-.3.27-.89.37a27.66,27.66,0,0,1-2.76,3.41V23a6,6,0,0,1,2.53.87,1.83,1.83,0,0,1,.74,1.24c0,.8-.36,1.19-1.05,1.19-.45,0-.79-.28-1-.87a4.08,4.08,0,0,0-1.22-1.58v8l-2.14.3V24.81a27.55,27.55,0,0,1-2.68,1.68l-.21-.38A24.74,24.74,0,0,0,116.77,19h-5.13l-.22-.51H114V14.9Zm12,6.14v.53h-4.52V30.5h1.92l1.2-1.43,1.84,1.43V31H117.44l-.23-.51h4.37V21.81h-3.32l-.23-.53h3.55V15l2.45.25c.4.06.61.19.61.42s-.29.36-.82.53v5.11h1.48l1.18-1.4Z"/><path class="cls-1" d="M144,12.68c.49.15.74.32.74.54s-.42.55-1.26.67a41.69,41.69,0,0,1-1.85,4.48l.62.18c.49.14.74.29.74.44s-.32.44-1,.59V33.83l-2.69.49v-12a18,18,0,0,1-2.51,2.81l-.37-.5a26.82,26.82,0,0,0,2.63-6,52.88,52.88,0,0,0,1.68-6.85C143,12.39,144,12.68,144,12.68Zm14.89,4.59v.66h-6.66v6.46h2.22l1.45-1.73,2.3,1.73v.69h-6v7.69h3.28l1.55-1.83,2.39,1.83v.66H143l-.27-.66h6.63V25.08h-5.1l-.3-.69h5.4V17.93h-6l-.29-.66h12l1.46-1.73Zm-7.05-4a2.51,2.51,0,0,1,.88,1.65c0,1.23-.56,1.85-1.65,1.85-.51,0-.88-.4-1.11-1.21a5.62,5.62,0,0,0-2.63-3.13l.29-.49A8.25,8.25,0,0,1,151.88,13.3Z"/><path class="cls-1" d="M180.55,32.4a7.19,7.19,0,0,1-2.2-1.06,21,21,0,0,0-4.41-2V30a2.6,2.6,0,0,1-1.45,2.41,6.19,6.19,0,0,1-2.91.64,11.56,11.56,0,0,1-3.62-.42A2.61,2.61,0,0,1,164,30a3,3,0,0,1,2-2.84,9.64,9.64,0,0,1,3.67-.61c.3,0,.94,0,1.92.07V23.48c-1.28.07-2.41.09-3.37.09-2.62,0-3.92-.69-3.92-2.11a2.38,2.38,0,0,1,.66-1.63l.57.1a1.79,1.79,0,0,0-.17.74,1,1,0,0,0,.17.61c.22.32,1.26.47,3.13.47.49,0,1.45,0,2.93-.1V18.57c-1.62.08-2.76.1-3.4.1a9.14,9.14,0,0,1-3.35-.39,3.4,3.4,0,0,1-1.7-2.76l.57-.3a2.8,2.8,0,0,0,2.78,1.72c-.15,0,1.55-.12,5.1-.37V15a1.58,1.58,0,0,0-.54-1.38,5.34,5.34,0,0,0-1.48-.45v-.59h1a11.25,11.25,0,0,1,2.37.32c1.16.3,1.75.67,1.75,1.14a1.78,1.78,0,0,1-.3.79,3.91,3.91,0,0,0-.37,1.6c.3,0,1.21-.1,2.79-.3a7.59,7.59,0,0,0,2.39-.56,1.34,1.34,0,0,1,.57-.2,2,2,0,0,1,1.13.59c.44.39.69.74.69,1s-.42.69-1.23.79c-2.62.37-4.78.59-6.53.67v3.06c2.29,0,3.87-.3,4.7-.87a1,1,0,0,1,.47-.19A1.87,1.87,0,0,1,180,21c.44.39.67.71.67,1,0,.47-1,.84-3,1.11a37.87,37.87,0,0,1-3.94.32l.09,3.64a32.29,32.29,0,0,1,6.24,2.3c1,.49,1.53,1.11,1.53,1.82S181.24,32.4,180.55,32.4Zm-12.37-4c-2.05,0-3.06.51-3.06,1.55s1,1.53,3,1.53c2.17,0,3.32-.92,3.47-2.79A20.2,20.2,0,0,0,168.18,28.36Z"/><path class="cls-1" d="M191.66,29.42a3,3,0,0,0,.15.78,4.73,4.73,0,0,1,.12.77c0,.89-.32,1.33-1,1.33-.84,0-1.63-.57-2.39-1.73a10.62,10.62,0,0,1-1.92-6.13,33.64,33.64,0,0,1,.39-4.34c.25-1.92.39-3,.39-3.2,0-.62-.49-1.34-1.45-2.15l.3-.59c2.93,1,4.41,2.29,4.41,3.75a.69.69,0,0,1-.2.39,8.71,8.71,0,0,0-1.82,5.94,5.18,5.18,0,0,0,.42,2,3.91,3.91,0,0,0,1,1.68c.15-.18.64-.84,1.48-2s1.65-2.37,2.83-4l.37.37C192.69,25.74,191.66,28.13,191.66,29.42Zm11.88.49c-.42,0-.74-.32-1-1a2.5,2.5,0,0,0-1.23-1.51,16.15,16.15,0,0,0-3.15-.56v-.57c2.07-.05,3.55-.1,4.41-.1q-.3-6.21-4.22-9.68l.3-.5a12.54,12.54,0,0,1,5.3,4.64,14.82,14.82,0,0,1,1.3,6.9C205.26,29.12,204.67,29.91,203.54,29.91Z"/><path class="cls-1" d="M229.29,15.64v.66h-8.77V31.61H226l1.62-2,2.62,2v.69H208.59l-.29-.69h9.24V16.3h-8l-.29-.66h15.89l1.63-1.92Z"/><path class="cls-1" d="M253.94,16.72c.37.25.56.45.56.64s-.27.52-.76.77V21.6l-2.71.57V20.94h-4.86L247,21c.45,0,.69.22.69.49s-.32.47-1,.67V24h5.1l1.46-1.85L255.66,24v.66h-9.49a19.34,19.34,0,0,1-.37,2h4.93l1-1.35,2.37,1.72a1,1,0,0,1,.44.69c0,.2-.32.35-1,.47-.47,2.94-1,4.66-1.72,5.25a3.65,3.65,0,0,1-2.42.74c-.47,0-.69-.27-.69-.81-.05-.84-.81-1.36-2.29-1.6v-.5H250a13.16,13.16,0,0,0,.84-3.94h-5.22a7.43,7.43,0,0,1-.74,1.63,8.81,8.81,0,0,1-3.08,3.37,18.29,18.29,0,0,1-5.11,2.22l-.29-.57a13.28,13.28,0,0,0,5.1-4.06,11.78,11.78,0,0,0,1.8-5.28h-4.91a14.12,14.12,0,0,1-1.08,5.2,12.8,12.8,0,0,1-3.4,4.44l-.4-.59a18,18,0,0,0,1.73-4.54,35,35,0,0,0,.39-5.86V15.24l3.16,1.46H251l.76-1.26Zm1.43-3v.66h-21.1l-.27-.66h17.52L253,11.87Zm-17,6.53H251V17.36H238.41ZM244.1,24V20.94h-5.69V24Z"/><path class="cls-1" d="M276.87,32.4a7.3,7.3,0,0,1-2.19-1.06,21.52,21.52,0,0,0-4.41-2V30a2.61,2.61,0,0,1-1.46,2.41,6.15,6.15,0,0,1-2.9.64,11.63,11.63,0,0,1-3.63-.42,2.61,2.61,0,0,1-2-2.63,3,3,0,0,1,2-2.84,9.68,9.68,0,0,1,3.67-.61c.3,0,.94,0,1.93.07V23.48c-1.28.07-2.42.09-3.38.09-2.61,0-3.92-.69-3.92-2.11a2.34,2.34,0,0,1,.67-1.63l.56.1a1.79,1.79,0,0,0-.17.74,1,1,0,0,0,.17.61c.23.32,1.26.47,3.13.47.5,0,1.46,0,2.94-.1V18.57c-1.63.08-2.76.1-3.4.1a9.17,9.17,0,0,1-3.36-.39,3.43,3.43,0,0,1-1.7-2.76l.57-.3a2.81,2.81,0,0,0,2.79,1.72c-.15,0,1.55-.12,5.1-.37V15a1.58,1.58,0,0,0-.55-1.38,5.12,5.12,0,0,0-1.47-.45v-.59h1a11.24,11.24,0,0,1,2.36.32c1.16.3,1.75.67,1.75,1.14a1.87,1.87,0,0,1-.29.79,3.75,3.75,0,0,0-.37,1.6c.29,0,1.21-.1,2.78-.3a7.59,7.59,0,0,0,2.39-.56,1.34,1.34,0,0,1,.57-.2,2,2,0,0,1,1.13.59c.45.39.69.74.69,1s-.41.69-1.23.79c-2.61.37-4.78.59-6.53.67v3.06c2.29,0,3.87-.3,4.71-.87a1,1,0,0,1,.47-.19,1.93,1.93,0,0,1,1.06.59q.66.59.66,1c0,.47-1,.84-3,1.11a37.64,37.64,0,0,1-3.94.32l.1,3.64a32.44,32.44,0,0,1,6.23,2.3c1,.49,1.53,1.11,1.53,1.82S277.56,32.4,276.87,32.4Zm-12.37-4c-2.05,0-3.06.51-3.06,1.55s1,1.53,3,1.53c2.17,0,3.33-.92,3.48-2.79A20.4,20.4,0,0,0,264.5,28.36Z"/><path class="cls-1" d="M297.29,30.48c-2.29.78-5.74,1.15-10.38,1.15V31a28.17,28.17,0,0,0,8.58-2c3.1-1.43,4.66-3.68,4.66-6.68,0-3.31-1.53-5-4.59-5a15.72,15.72,0,0,0-4.34.69,11,11,0,0,0-3.91,1.9,3.13,3.13,0,0,1-1.26.76,3.08,3.08,0,0,1-2-1.18,5.14,5.14,0,0,1-1.43-3l.59-.2A1.86,1.86,0,0,0,285,17.81a31.32,31.32,0,0,0,3.53-.87,28.67,28.67,0,0,1,7.49-1,7,7,0,0,1,5.2,1.85A7.29,7.29,0,0,1,303,23Q303,28.55,297.29,30.48Z"/><path class="cls-1" d="M326.08,25.18a5.75,5.75,0,0,1-3.53,1c-1.58,0-3.57-.91-6-2.78l.3-.57a8.39,8.39,0,0,0,4.63,1.43,4.27,4.27,0,0,0,2.47-.69A2.55,2.55,0,0,0,325,21.36,2.58,2.58,0,0,0,324,19.19a4,4,0,0,0-2.37-.69,18.32,18.32,0,0,0-7.47,2.09c.2.59,1.16,2.64,2.86,6.14a55.49,55.49,0,0,1,2.32,5.1,2,2,0,0,1-.67,1.23,1.8,1.8,0,0,1-1.16.69c-.24,0-.49-.37-.76-1.06-1.26-3.23-2.74-6.9-4.41-11-.67.4-1.09.64-1.28.79a8.75,8.75,0,0,0-1.11,1,1.23,1.23,0,0,1-.69.46,2.75,2.75,0,0,1-2.22-1.4A6.43,6.43,0,0,1,305.86,20l.57-.2c.45.91,1,1.35,1.65,1.35a10,10,0,0,0,3.45-1.25c-.37-.59-.74-1.21-1.11-1.83a5.33,5.33,0,0,1-.81-1.72c0-.5.4-.86,1.18-1.14a5.58,5.58,0,0,1,1.78-.29,16.39,16.39,0,0,1,5.37.86,6.37,6.37,0,0,0-3.15-2.88l.29-.5a9.15,9.15,0,0,1,3.53,1.06,3.31,3.31,0,0,1,1.94,2.89,1.47,1.47,0,0,1-.59,1.06,9.74,9.74,0,0,1,2-.2,6.55,6.55,0,0,1,3.92,1.08,4.25,4.25,0,0,1,1.65,3.6A3.84,3.84,0,0,1,326.08,25.18Zm-9-8.56a7.3,7.3,0,0,0-2.86-.64c-1,0-1.55.32-1.55,1a7.33,7.33,0,0,0,.86,2.22,28.29,28.29,0,0,1,6-1.62A10,10,0,0,1,317.08,16.62Z"/><path class="cls-1" d="M348.94,32.4a7.08,7.08,0,0,1-2.19-1.06,21.52,21.52,0,0,0-4.41-2V30a2.61,2.61,0,0,1-1.46,2.41,6.16,6.16,0,0,1-2.91.64,11.6,11.6,0,0,1-3.62-.42,2.61,2.61,0,0,1-2-2.63,3,3,0,0,1,2-2.84,9.68,9.68,0,0,1,3.67-.61c.3,0,.94,0,1.92.07V23.48c-1.28.07-2.41.09-3.37.09-2.62,0-3.92-.69-3.92-2.11a2.38,2.38,0,0,1,.66-1.63l.57.1a1.79,1.79,0,0,0-.17.74,1,1,0,0,0,.17.61c.22.32,1.26.47,3.13.47.49,0,1.45,0,2.93-.1V18.57c-1.62.08-2.76.1-3.4.1a9.14,9.14,0,0,1-3.35-.39,3.4,3.4,0,0,1-1.7-2.76l.57-.3a2.8,2.8,0,0,0,2.78,1.72c-.15,0,1.55-.12,5.1-.37V15a1.58,1.58,0,0,0-.54-1.38,5.22,5.22,0,0,0-1.48-.45v-.59h1a11.25,11.25,0,0,1,2.37.32c1.16.3,1.75.67,1.75,1.14a1.78,1.78,0,0,1-.3.79,3.77,3.77,0,0,0-.36,1.6c.29,0,1.2-.1,2.78-.3a7.59,7.59,0,0,0,2.39-.56,1.34,1.34,0,0,1,.57-.2,2,2,0,0,1,1.13.59c.44.39.69.74.69,1s-.42.69-1.23.79c-2.61.37-4.78.59-6.53.67v3.06c2.29,0,3.87-.3,4.71-.87a1,1,0,0,1,.46-.19,1.87,1.87,0,0,1,1.06.59c.45.39.67.71.67,1,0,.47-1,.84-3,1.11a37.87,37.87,0,0,1-3.94.32l.1,3.64a32.44,32.44,0,0,1,6.23,2.3c1,.49,1.53,1.11,1.53,1.82S349.63,32.4,348.94,32.4Zm-12.37-4c-2.05,0-3.06.51-3.06,1.55s1,1.53,3,1.53c2.17,0,3.33-.92,3.47-2.79A20.2,20.2,0,0,0,336.57,28.36Z"/><polygon class="cls-2" points="43.19 21.72 27.71 16.73 22.72 21.72 43.19 21.72"/><polygon class="cls-3" points="27.71 26.7 43.19 21.72 22.72 21.72 27.71 26.7"/><polygon class="cls-4" points="22.72 21.72 15.68 21.72 8 35.58 22.73 28.77 22.72 21.72"/><polygon class="cls-5" points="2.25 21.72 17.74 26.7 22.72 21.72 2.25 21.72"/><polygon class="cls-6" points="22.72 21.72 27.71 16.73 22.72 2.11 17.74 16.73 22.72 21.72"/><polygon class="cls-7" points="22.72 21.72 22.72 14.67 8 7.85 15.68 21.72 22.72 21.72"/><polygon class="cls-8" points="22.72 21.72 22.72 28.76 37.45 35.58 29.77 21.72 22.72 21.72"/><polygon class="cls-9" points="22.72 21.72 29.77 21.72 37.45 7.85 22.72 14.67 22.72 21.72"/><path class="cls-10" d="M22.65,0C10.14,0,0,9.71,0,21.69S10.14,43.37,22.65,43.37,45.3,33.66,45.3,21.69,35.16,0,22.65,0Zm0,41.82c-11.61,0-21-9-21-20.13S11,1.55,22.65,1.55s21,9,21,20.14S34.26,41.82,22.65,41.82Z"/><polygon class="cls-11" points="17.74 16.73 17.74 16.73 22.72 21.72 22.72 14.67 19.03 12.96 17.74 16.73 17.74 16.73"/><polygon class="cls-12" points="17.74 26.7 22.72 21.72 15.68 21.72 13.65 25.38 17.74 26.7 17.74 26.7"/><polygon class="cls-13" points="29.77 21.72 29.77 21.72 22.72 21.72 27.71 26.7 31.8 25.38 29.77 21.72 29.77 21.72"/><polygon class="cls-14" points="22.72 14.67 22.72 21.72 27.71 16.73 26.42 12.96 22.72 14.67 22.72 14.67"/><polygon class="cls-15" points="27.71 16.73 27.71 16.73 22.72 21.72 29.77 21.72 31.8 18.05 27.71 16.73 27.71 16.73"/><polygon class="cls-16" points="17.74 16.73 2.25 21.72 22.72 21.72 17.74 16.73"/><polygon class="cls-17" points="17.74 26.7 22.72 41.33 22.72 21.72 17.74 26.7"/><polygon class="cls-18" points="27.71 26.7 22.72 21.72 22.72 41.33 22.72 41.33 27.71 26.7"/><polygon class="cls-19" points="15.68 21.72 15.68 21.72 22.72 21.72 17.74 16.73 13.65 18.05 15.68 21.72 15.68 21.72"/><polygon class="cls-20" points="27.71 26.7 27.71 26.7 22.72 21.72 22.73 28.77 26.42 30.48 27.71 26.7 27.71 26.7"/><polygon class="cls-21" points="22.73 28.77 22.72 28.76 22.72 21.72 17.74 26.7 19.03 30.48 22.73 28.77 22.73 28.77"/></g></g></svg>